<?xml version="1.0" standalone="no"?><svg xmlns="http://www.w3.org/2000/svg" viewBox="0 0 1440 320"><path fill="#b79de1" fill-opacity="1" d="M0,256L34.3,224C68.6,192,137,128,206,106.7C274.3,85,343,107,411,122.7C480,139,549,149,617,128C685.7,107,754,53,823,37.3C891.4,21,960,43,1029,74.7C1097.1,107,1166,149,1234,170.7C1302.9,192,1371,192,1406,192L1440,192L1440,320L1405.7,320C1371.4,320,1303,320,1234,320C1165.7,320,1097,320,1029,320C960,320,891,320,823,320C754.3,320,686,320,617,320C548.6,320,480,320,411,320C342.9,320,274,320,206,320C137.1,320,69,320,34,320L0,320Z"></path></svg>